<?xml version="1.0" encoding="UTF-8" standalone="no"?>
<!-- Created with Inkscape (http://www.inkscape.org/) -->

<svg
   xmlns:dc="http://purl.org/dc/elements/1.1/"
   xmlns:cc="http://creativecommons.org/ns#"
   xmlns:rdf="http://www.w3.org/1999/02/22-rdf-syntax-ns#"
   xmlns:svg="http://www.w3.org/2000/svg"
   xmlns="http://www.w3.org/2000/svg"
   xmlns:sodipodi="http://sodipodi.sourceforge.net/DTD/sodipodi-0.dtd"
   xmlns:inkscape="http://www.inkscape.org/namespaces/inkscape"
   width="11.193632mm"
   height="7.6481118mm"
   viewBox="0 0 11.193632 7.6481118"
   version="1.1"
   id="svg8"
   inkscape:version="0.92.4 (5da689c313, 2019-01-14)"
   sodipodi:docname="stz-white.svg">
  <defs
     id="defs2" />
  <sodipodi:namedview
     id="base"
     pagecolor="#ffffff"
     bordercolor="#666666"
     borderopacity="1.0"
     inkscape:pageopacity="0.0"
     inkscape:pageshadow="2"
     inkscape:zoom="1.979899"
     inkscape:cx="28.388273"
     inkscape:cy="26.340441"
     inkscape:document-units="mm"
     inkscape:current-layer="layer1"
     showgrid="false"
     inkscape:window-width="1920"
     inkscape:window-height="1017"
     inkscape:window-x="-8"
     inkscape:window-y="-8"
     inkscape:window-maximized="1"
     fit-margin-top="0"
     fit-margin-left="0"
     fit-margin-right="0"
     fit-margin-bottom="0" />
  <metadata
     id="metadata5">
    <rdf:RDF>
      <cc:Work
         rdf:about="">
        <dc:format>image/svg+xml</dc:format>
        <dc:type
           rdf:resource="http://purl.org/dc/dcmitype/StillImage" />
        <dc:title></dc:title>
      </cc:Work>
    </rdf:RDF>
  </metadata>
  <g
     inkscape:label="Ebene 1"
     inkscape:groupmode="layer"
     id="layer1"
     transform="translate(-62.136776,-146.71404)">
    <g
       aria-label="S"
       style="font-style:normal;font-variant:normal;font-weight:normal;font-stretch:normal;font-size:10.58333302px;line-height:1.25;font-family:'Palatino Linotype';-inkscape-font-specification:'Palatino Linotype';letter-spacing:0px;word-spacing:0px;fill:#5be800;fill-opacity:1;stroke:none;stroke-width:0.26458332"
       id="text4532" />
    <g
       aria-label="T"
       style="font-style:normal;font-variant:normal;font-weight:normal;font-stretch:normal;font-size:10.58333302px;line-height:1.25;font-family:'Palatino Linotype';-inkscape-font-specification:'Palatino Linotype';letter-spacing:0px;word-spacing:0px;fill:#5be800;fill-opacity:1;stroke:none;stroke-width:0.26458332"
       id="text4536" />
    <g
       aria-label="Z"
       style="font-style:normal;font-variant:normal;font-weight:normal;font-stretch:normal;font-size:10.58333302px;line-height:1.25;font-family:'Palatino Linotype';-inkscape-font-specification:'Palatino Linotype';letter-spacing:0px;word-spacing:0px;fill:#ffffff;fill-opacity:1;stroke:none;stroke-width:0.26458332"
       id="text4540"
       transform="translate(-0.01670435,2.0379302)">
      <path
         style="font-style:normal;font-variant:normal;font-weight:normal;font-stretch:normal;font-family:'Palatino Linotype';-inkscape-font-specification:'Palatino Linotype';stroke-width:0.99999994;fill:#ffffff;fill-opacity:1"
         d="m 244.4375,554.50977 c -2.85156,0 -5.1237,0.78125 -6.81641,2.34375 -1.69271,1.54949 -2.53906,3.54167 -2.53906,5.97656 0,0.89843 0.14324,1.74479 0.42969,2.53906 0.29948,0.78127 0.6901,1.44533 1.17187,1.99219 0.4948,0.53386 1.10678,0.97663 1.83594,1.32812 0.72917,0.3515 1.45834,0.61193 2.1875,0.78125 0.74219,0.16925 1.76432,0.35816 3.06641,0.56641 1.34114,0.22137 2.35026,0.4296 3.02734,0.625 0.67708,0.18229 1.27605,0.46876 1.79688,0.85937 0.53385,0.37762 0.94401,0.88542 1.23046,1.52344 0.29948,0.63802 0.44922,1.38674 0.44922,2.2461 0,1.22396 -0.30598,2.33071 -0.91796,3.32031 -0.61198,0.97655 -1.47136,1.71874 -2.57813,2.22656 -1.09375,0.50774 -2.33073,0.76172 -3.71094,0.76172 -1.0026,0 -1.9987,-0.13022 -2.98828,-0.39063 -0.97656,-0.26044 -1.76432,-0.59247 -2.36328,-0.99609 -0.58594,-0.41669 -0.93748,-0.80715 -1.05469,-1.17187 -0.10416,-0.37762 -0.18878,-1.39975 -0.2539,-3.06641 l -0.15625,-0.15625 h -0.95703 l -0.15626,0.15625 c -0.0651,3.00641 -0.16279,4.9201 -0.29296,5.74023 l 0.11718,0.25586 c 2.03125,0.96352 4.39453,1.44532 7.08985,1.44532 1.14211,0 1.42872,-0.084 3.24219,-0.35547 1.81347,-0.2715 6.50179,-0.35387 7.84374,-0.37891 1.34195,-0.025 -1.39202,-0.0403 0.17383,-0.006 1.56585,0.0342 6.43822,0.11757 10.36328,0.008 3.17709,0 7.51302,0.0523 13.00782,0.15625 l 0.17578,-0.15625 c 0.0912,-3.69792 0.18231,-5.96352 0.27344,-6.79687 l -0.15625,-0.1543 h -0.91797 l -0.17578,0.1543 -0.42969,2.61719 c -0.14321,0.74222 -0.24738,1.19156 -0.3125,1.34765 -0.0651,0.14306 -0.1953,0.29313 -0.39063,0.44922 -0.18229,0.14325 -0.52734,0.25575 -1.03515,0.33399 -0.50782,0.0782 -1.5625,0.15613 -3.16407,0.23437 -1.60156,0.0782 -3.1901,0.11719 -4.76562,0.11719 l -7.91016,-0.13867 16.26953,-20.95704 c 0.57292,-0.72914 1.57553,-1.94007 3.00782,-3.63281 v -0.99609 l -0.17578,-0.17578 c -5,0.10393 -9.03646,0.15625 -12.10938,0.15625 -0.0568,0 -0.1805,0.004 -0.24023,0.004 -0.9846,0.004 -2.33747,0.0311 -4.07813,0.0469 -2.02504,-0.0165 -5.02034,-0.055 -7.41016,-0.0508 -2.38982,0.004 -3.53887,0.0316 -5.01171,-0.30275 -1.47284,-0.33433 -2.5586,-0.42968 -3.69141,-0.42968 z m 0.0195,1.67968 c 1.32813,0 2.46338,0.38857 3.69141,0.89844 1.22803,0.50987 3.17574,2.32275 3.17574,3.37987 0,1.05712 0,1.55733 0,1.62794 v 6.47657 c -0.35067,-0.26673 -0.72629,-0.50287 -1.14453,-0.6836 -1.04167,-0.46874 -2.71485,-0.86599 -5.01953,-1.1914 -1.67969,-0.24745 -2.83855,-0.45568 -3.47657,-0.625 -0.625,-0.16929 -1.17838,-0.42308 -1.66015,-0.76172 -0.46875,-0.35157 -0.85286,-0.82031 -1.15235,-1.40625 -0.29947,-0.59898 -0.44921,-1.28256 -0.44921,-2.05078 -1e-5,-0.9896 0.24739,-1.95965 0.74218,-2.91016 0.49479,-0.95051 1.22396,-1.64715 2.1875,-2.08984 0.96354,-0.44259 1.9987,-0.66407 3.10547,-0.66407 z m 23.3418,0.69336 3.14453,0.0195 h 0.80078 c -0.58594,0.93752 -1.72526,2.48701 -3.41797,4.64844 l -11.15234,14.35547 -2.13477,2.63867 c -0.009,-0.38433 -0.0189,-0.74598 -0.0234,-1.25195 l -0.0391,-3.80859 v -11.38672 c 0,-0.13672 0,-0.64194 0,-1.62987 0,-0.98793 1.29846,-2.9009 2.80276,-3.19435 0.54687,-0.0911 1.66015,-0.17567 3.33984,-0.25391 1.69271,-0.0911 3.91927,-0.13672 6.67969,-0.13672 z"
         transform="matrix(0.26458333,0,0,0.26458333,0.01670435,-2.0379302)"
         id="path4542"
         inkscape:connector-curvature="0"
         sodipodi:nodetypes="scsccccccccsccscccccccccszzzcccccccccccsccccccscczzssczzcccccccscsccccccccscczcccc" />
    </g>
  </g>
</svg>
